<svg xmlns="http://www.w3.org/2000/svg" width="15" height="25" fill="none" viewBox="0 0 15 25"><path fill="#50555C" fill-rule="evenodd" d="M0 11.667c0-.627.373-1 1-1 .294 0 .667.373.667 1 0 5.191 1.904 7.666 6 7.666 3.762 0 5.666-2.475 5.666-7.666 0-.627.373-1 1-1 .294 0 .667.373.667 1 0 5.744-2.305 9.014-6.667 9.31v2.356H11.5a.833.833 0 0 1 0 1.667h-8a.833.833 0 1 1 0-1.667h3.167v-2.378C2.21 20.543 0 17.291 0 11.667Zm7.5-10A2.833 2.833 0 0 0 4.667 4.5v9a2.833 2.833 0 0 0 5.666 0v-9A2.833 2.833 0 0 0 7.5 1.667ZM7.5 0A4.5 4.5 0 0 1 12 4.5v9a4.5 4.5 0 1 1-9 0v-9A4.5 4.5 0 0 1 7.5 0Z" clip-rule="evenodd"/></svg>